HIERARCHY
ROOT Hips
{
    OFFSET 0.000000 0.000000 0.000000
    CHANNELS 6 Xposition Yposition Zposition Zrotation Xrotation Yrotation
    JOINT Spine
    {
        OFFSET -0.000000 6.993131 0.000000
        CHANNELS 3 Zrotation Xrotation Yrotation
        JOINT Spine1
        {
            OFFSET -0.000000 20.649729 0.000000
            CHANNELS 3 Zrotation Xrotation Yrotation
            JOINT Neck
            {
                OFFSET -0.000000 20.564924 1.869539
                CHANNELS 3 Zrotation Xrotation Yrotation
                JOINT Head
                {
                    OFFSET -0.000000 11.939490 -1.705642
                    CHANNELS 3 Zrotation Xrotation Yrotation
                    End Site
                    {
                        OFFSET -0.000000 21.320518 0.000000
                    }
                }
            }
            JOINT LeftShoulder
            {
                OFFSET 3.446977 19.850397 -0.038759
                CHANNELS 3 Zrotation Xrotation Yrotation
                JOINT LeftArm
                {
                    OFFSET 7.083611 0.000000 0.000000
                    CHANNELS 3 Zrotation Xrotation Yrotation
                    JOINT LeftForeArm
                    {
                        OFFSET 32.044487 0.000000 0.000000
                        CHANNELS 3 Zrotation Xrotation Yrotation
                        JOINT LeftHand
                        {
                            OFFSET 22.068741 0.000000 0.000000
                            CHANNELS 3 Zrotation Xrotation Yrotation
                            End Site
                            {
                                OFFSET 12.792312 0.000000 0.000000
                            }
                        }
                    }
                }
            }
            JOINT RightShoulder
            {
                OFFSET -3.365844 19.850397 -0.038759
                CHANNELS 3 Zrotation Xrotation Yrotation
                JOINT RightArm
                {
                    OFFSET -7.083611 0.000000 0.000000
                    CHANNELS 3 Zrotation Xrotation Yrotation
                    JOINT RightForeArm
                    {
                        OFFSET -32.044487 0.000000 0.000000
                        CHANNELS 3 Zrotation Xrotation Yrotation
                        JOINT RightHand
                        {
                            OFFSET -22.068741 0.000000 0.000000
                            CHANNELS 3 Zrotation Xrotation Yrotation
                            End Site
                            {
                                OFFSET -12.792312 0.000000 0.000000
                            }
                        }
                    }
                }
            }
        }
    }
    JOINT LeftUpLeg
    {
        OFFSET 8.528208 0.000000 0.000000
        CHANNELS 3 Zrotation Xrotation Yrotation
        JOINT LeftLeg
        {
            OFFSET -0.000000 -31.874865 0.000000
            CHANNELS 3 Zrotation Xrotation Yrotation
            JOINT LeftFoot
            {
                OFFSET -0.000000 -38.221939 0.000000
                CHANNELS 3 Zrotation Xrotation Yrotation
                JOINT LeftToeBase
                {
                    OFFSET -0.000000 -5.543335 12.792312
                    CHANNELS 3 Zrotation Xrotation Yrotation
                    End Site
                    {
                        OFFSET -0.000000 0.000000 3.411283
                    }
                }
            }
        }
    }
    JOINT RightUpLeg
    {
        OFFSET -8.528208 0.000000 0.000000
        CHANNELS 3 Zrotation Xrotation Yrotation
        JOINT RightLeg
        {
            OFFSET -0.000000 -31.874865 0.000000
            CHANNELS 3 Zrotation Xrotation Yrotation
            JOINT RightFoot
            {
                OFFSET -0.000000 -38.221939 0.000000
                CHANNELS 3 Zrotation Xrotation Yrotation
                JOINT RightToeBase
                {
                    OFFSET -0.000000 -5.543335 12.792312
                    CHANNELS 3 Zrotation Xrotation Yrotation
                    End Site
                    {
                        OFFSET -0.000000 0.000000 3.411283
                    }
                }
            }
        }
    }
}
MOTION
Frames:    10
Frame Time:    0.008333
17.879311    75.640686    18.550465    -1.939661    2.046018    86.309654    1.390340    -2.469050    -2.233126    -8.864680    1.745497    -2.127759    8.740756    9.850862    1.820340    -3.397270    7.557471    1.108728    5.843781    11.375541    -2.688535    -66.046600    56.851318    -6.030797    1.228084    -20.602137    -37.253815    3.824744    -20.092081    3.886358    16.055317    12.488782    -2.856452    35.599682    59.698463    17.984652    -6.025805    -11.053899    32.753315    10.717729    -9.071589    2.566604    -5.209127    -13.902023    0.309924    5.564514    25.669756    2.722042    -3.162075    -9.612523    0.257357    0.000000    0.000000    0.000000    -8.246325    -8.468466    -0.384254    6.838279    21.180717    -1.420159    -0.843729    -13.084440    -2.745632    0.000000    0.000000    0.000000    
17.853727    75.803032    18.570028    -2.377468    2.162242    86.564377    1.326619    -2.857761    -2.201429    -8.886631    1.605689    -2.109755    8.880183    9.694997    1.692670    -3.504840    7.923991    0.957558    5.833197    11.402854    -2.607111    -66.004402    56.917686    -6.039026    1.139122    -20.512054    -37.219810    3.610812    -20.039169    3.815218    16.092804    12.451190    -3.011716    35.857365    59.692890    17.674431    -6.267099    -10.798905    32.712967    11.216473    -8.724959    2.680089    -5.275508    -13.547170    0.363917    5.543634    24.208235    2.562499    -3.086239    -9.112685    0.219807    0.000000    0.000000    0.000000    -8.423877    -8.048022    -0.062645    7.157059    19.667604    -1.725954    -1.201400    -12.576757    -3.085065    0.000000    0.000000    0.000000    
17.878252    75.936600    18.630751    -2.722229    2.094417    86.915535    1.374337    -3.249413    -2.195365    -8.871694    1.567386    -2.112761    9.019731    9.978136    1.485770    -3.559184    7.551032    0.741307    5.898232    11.390811    -2.656549    -66.139122    56.928146    -5.914913    1.064107    -20.309280    -37.141991    3.609101    -19.861128    3.789207    16.155416    12.396249    -3.187755    36.096066    59.812725    17.344294    -6.442974    -10.649373    32.671799    11.646271    -8.486785    2.966920    -5.168031    -13.039636    0.733027    5.683687    22.659864    2.209490    -2.986982    -8.790521    -0.029623    0.000000    0.000000    0.000000    -8.308920    -7.495948    -0.264467    7.165316    18.276255    -1.755360    -1.358057    -12.090894    -3.271642    0.000000    0.000000    0.000000    
17.829136    76.043777    18.658688    -3.175113    2.217376    87.044632    1.269209    -3.606058    -2.115147    -8.860154    1.390744    -2.047344    9.007983    10.177310    1.361503    -3.455678    7.276936    0.628872    5.945829    11.419180    -2.674364    -66.226585    56.932446    -5.821975    1.058008    -20.173441    -37.174026    3.438468    -19.734255    3.704036    16.141083    12.353304    -3.291679    36.380516    59.885391    17.052114    -6.463768    -10.598643    32.754967    11.201602    -8.481945    2.495003    -5.154299    -12.851265    0.785324    5.474672    21.441313    2.237005    -2.768162    -8.403672    -0.066815    0.000000    0.000000    0.000000    -8.458161    -7.360683    -0.139889    7.337421    17.202097    -1.767084    -1.569385    -11.730263    -3.541207    0.000000    0.000000    0.000000    
17.766308    76.138962    18.683996    -3.664011    2.274795    87.328362    1.224880    -3.989927    -2.091272    -8.846987    1.244000    -2.037682    9.237355    10.151715    1.257779    -3.683930    7.310407    0.488496    6.005325    11.467162    -2.711466    -66.250603    56.929726    -5.827980    1.017175    -20.069065    -37.194817    3.371946    -19.646029    3.643910    16.137093    12.298682    -3.414757    36.685539    59.897423    16.730350    -6.593039    -10.508086    32.753349    11.218834    -8.355785    2.464552    -5.143258    -12.717351    0.756507    5.412572    20.170275    2.324555    -2.788246    -7.982734    -0.557610    0.000000    0.000000    0.000000    -8.562780    -7.274743    -0.518730    7.401791    16.252262    -1.407088    -1.734333    -11.355698    -3.810276    0.000000    0.000000    0.000000    
17.720594    76.225578    18.726334    -4.101642    2.339950    87.589188    1.167525    -4.380054    -2.089269    -8.845576    1.201111    -2.041017    9.250538    10.153958    1.170471    -3.630196    7.207282    0.398066    6.041133    11.486094    -2.688221    -66.264854    56.938492    -5.788382    0.958636    -20.048628    -37.311684    3.482995    -19.640293    3.623705    16.131907    12.250112    -3.484425    36.937576    59.858101    16.487789    -6.702657    -10.382824    32.775822    11.166569    -8.207346    2.362548    -5.098855    -12.536228    0.920568    5.181826    18.902498    2.316446    -2.367183    -7.541430    -0.571170    0.000000    0.000000    0.000000    -8.620692    -7.172380    -0.662405    7.434330    15.268754    -1.450678    -1.770976    -10.932147    -3.784586    0.000000    0.000000    0.000000    
17.737789    76.267311    18.773064    -4.349474    2.299013    87.983215    1.190049    -4.692170    -2.140815    -8.811834    1.303625    -2.089087    9.187221    10.114339    1.058857    -3.505741    7.106130    0.288973    6.073994    11.472833    -2.750723    -66.381340    56.829540    -5.676830    0.940263    -19.934629    -37.368290    3.205431    -19.543877    3.462748    16.100849    12.186630    -3.608059    37.180267    59.780914    16.279902    -6.744178    -10.270376    32.779015    11.069199    -8.086528    2.334710    -4.995852    -12.156359    0.988735    5.109689    17.790911    1.780273    -2.050794    -7.423712    -0.405773    0.000000    0.000000    0.000000    -8.634316    -6.780600    -0.805382    7.594502    14.330783    -1.379596    -2.103284    -10.678330    -4.087088    0.000000    0.000000    0.000000    
17.696129    76.295609    18.839962    -4.731802    2.280056    88.180000    1.079716    -5.055299    -2.092124    -8.595272    1.392122    -2.035144    9.063550    9.921699    0.937356    -3.360320    7.124510    0.165889    6.071681    11.363567    -2.795454    -66.511398    56.764545    -5.572404    0.942819    -19.799110    -37.372120    3.050549    -19.411661    3.460669    16.085123    12.128684    -3.755816    37.238327    59.706234    16.184299    -6.853948    -10.201117    32.829609    10.958941    -7.988347    2.286284    -4.866062    -11.964056    1.284241    5.057587    16.702135    1.315519    -1.723191    -7.330274    -0.345503    0.000000    0.000000    0.000000    -8.609454    -6.742555    -0.763679    7.727314    13.599272    -1.386915    -2.309907    -10.424398    -4.332726    0.000000    0.000000    0.000000    
17.692959    76.306084    18.879852    -4.976946    2.301155    88.370262    1.039252    -5.356822    -2.064485    -8.540270    1.549835    -1.997371    9.028574    9.852104    0.858255    -3.319669    6.929193    0.077541    6.070784    11.304056    -2.834177    -66.589066    56.724422    -5.478498    0.956689    -19.748749    -37.404514    3.112716    -19.356403    3.393836    16.062738    12.064170    -3.811003    37.376133    59.679420    16.050299    -6.963160    -10.197695    32.811260    10.853454    -7.947586    2.377902    -4.767338    -11.651106    1.480082    4.908652    15.718119    0.865562    -1.404808    -7.307323    -0.193053    0.000000    0.000000    0.000000    -8.688444    -6.587798    -0.736893    7.913455    12.960052    -1.276050    -2.579779    -10.277783    -4.673364    0.000000    0.000000    0.000000    
17.663368    76.297646    18.919516    -5.234442    2.312448    88.605919    1.005814    -5.556372    -2.033602    -8.519221    1.570663    -1.965407    9.074825    9.733840    0.733680    -3.296115    6.882249    -0.064348    6.142173    11.302196    -2.907113    -66.573586    56.618782    -5.560459    0.949822    -19.565918    -37.299534    2.970624    -19.181362    3.347591    16.043869    12.003462    -3.924641    37.608932    59.683201    15.852278    -7.124469    -10.187072    32.836784    10.835635    -7.891919    2.339882    -4.716686    -11.498156    1.692749    4.869546    14.936604    0.470565    -1.149519    -7.313240    -0.206926    0.000000    0.000000    0.000000    -8.795851    -6.528947    -0.780338    8.155706    12.486539    -0.903182    -2.983298    -10.201618    -5.278508    0.000000    0.000000    0.000000    
